<svg width="66" height="64" viewBox="0 0 66 64" fill="none" xmlns="http://www.w3.org/2000/svg">
<path d="M3.55049 24.3244C1.78705 27.3545 0.612648 30.7671 0.184639 34.4052C0.183067 34.4167 0.182022 34.4282 0.180443 34.4398C0.064003 35.4416 0.00210571 36.4602 0.00210571 37.493C0.00210571 44.3128 2.61632 50.5331 6.89431 55.2061C6.9625 55.3015 7.04275 55.3886 7.13402 55.4636C9.91293 58.4193 13.3664 60.734 17.2473 62.1565C17.3171 62.188 17.3895 62.2142 17.4634 62.2331C20.2145 63.2139 23.1749 63.75 26.2591 63.75C29.6989 63.75 32.9861 63.0839 35.9994 61.8759C36.0813 61.8512 36.16 61.8187 36.236 61.7789C39.9412 60.2514 43.2226 57.8995 45.8515 54.9533C45.9375 54.8772 46.0141 54.7917 46.0786 54.6973C50.0865 50.0857 52.5161 44.0679 52.5161 37.493C52.5161 36.5074 52.4594 35.5344 52.353 34.5767C52.3519 34.5646 52.3503 34.5531 52.3488 34.5415C52.1536 32.8033 51.788 31.1164 51.2693 29.4972L65.3742 15.3923C65.8987 14.8678 65.8987 14.0176 65.3742 13.493C65.1119 13.2308 64.7684 13.0996 64.4248 13.0996C64.0812 13.0996 63.7377 13.2308 63.4754 13.493L50.2166 26.7513C49.8473 25.9315 49.4371 25.1332 48.9887 24.3606C48.9478 24.2683 48.8958 24.1817 48.8355 24.1015C45.5069 18.5117 40.1631 14.2567 33.8132 12.3454L43.2725 2.8867C43.7964 2.36217 43.7964 1.51192 43.2725 0.987404C43.0102 0.725143 42.6661 0.594017 42.3225 0.594017C41.979 0.594017 41.6354 0.725143 41.3732 0.987404L30.7406 11.6205C29.2835 11.3687 27.7865 11.236 26.2591 11.236C16.6945 11.236 8.30894 16.3779 3.71834 24.0417C3.6512 24.1287 3.59455 24.2232 3.55049 24.3244ZM15.1686 24.2714L19.946 31.6231L17.4057 39.4411L11.368 40.797L9.79701 41.1494L2.93261 34.1004C3.3496 31.2197 4.28954 28.5059 5.6533 26.0585L15.1686 24.2714ZM32.5717 31.6231L37.3469 24.2751L46.8916 26.1067C48.2591 28.5746 49.1959 31.3126 49.6018 34.2184L42.7285 41.1515L35.112 39.4411L33.4193 34.231L32.5717 31.6231ZM45.8038 50.6559L44.5927 43.0855L49.8263 37.8061C49.7639 42.5578 48.2905 46.9753 45.8038 50.6559ZM30.1211 32.7713L32.493 40.071L26.2837 44.5819L20.0745 40.0705L22.4464 32.7713H30.1211ZM2.69028 37.7007L7.95122 43.1033L7.02125 51.0991C4.33046 47.3052 2.73381 42.6852 2.69028 37.7007ZM9.39365 53.9425L10.5822 43.7254L13.4713 43.0771L18.1484 42.027L24.8917 46.926V54.1953L17.604 59.4185C14.4878 58.1838 11.6968 56.3029 9.39365 53.9425ZM20.8072 60.4266L26.3157 56.4786L32.4568 60.2357C30.481 60.7749 28.4033 61.0645 26.2591 61.0645C24.3829 61.0645 22.5576 60.8431 20.8072 60.4266ZM35.7157 59.0818L27.6265 54.1324V46.926L32.3829 43.4704L34.3692 42.027L41.9769 43.7348L43.54 53.5051C41.3553 55.8612 38.6965 57.771 35.7157 59.0818ZM44.8151 22.9737L37.5699 21.5827L33.8799 15.1867C38.2392 16.68 42.0262 19.4175 44.8151 22.9737ZM30.2449 14.2604L35.1392 22.744L30.3682 30.0857H22.15L17.379 22.744L22.2722 14.2609C23.5688 14.0391 24.9006 13.9221 26.2591 13.9221C27.6176 13.9216 28.9488 14.0385 30.2449 14.2604ZM18.6378 15.1867L14.9499 21.5801L7.7325 22.936C10.5182 19.3981 14.2937 16.6748 18.6378 15.1867Z" fill="#334382"/>
</svg>
